<?xml version="1.0" encoding="utf-8"?>
<!-- Generator: Adobe Illustrator 17.1.0, SVG Export Plug-In . SVG Version: 6.00 Build 0)  -->
<!DOCTYPE svg PUBLIC "-//W3C//DTD SVG 1.1//EN" "http://www.w3.org/Graphics/SVG/1.1/DTD/svg11.dtd">
<svg version="1.1" id="favo-icons" xmlns="http://www.w3.org/2000/svg" xmlns:xlink="http://www.w3.org/1999/xlink" x="0px" y="0px"
	 viewBox="0 0 96 96" style="enable-background:new 0 0 96 96;" xml:space="preserve">
<style type="text/css">
	.st1{display:inline;fill:none;stroke:#0096D2;stroke-width:2;stroke-miterlimit:10;}
	.st2{display:inline;fill:none;stroke:#0096D2;stroke-width:2;}
</style>
<g id="icon-timeline" class="st1">
	<path class="st1" d="M6,52c0-23.2,18.8-42,42-42s42,18.8,42,42"/>
	<polyline class="st1" points="28,20 48,52 69,40 	"/>
	<line class="st1" x1="82" y1="86" x2="14" y2="86"/>
	<line class="st1" x1="9" y1="68" x2="87" y2="68"/>
</g>
<g id="icon-products" class="st1">
	<rect x="13" y="35" class="st1" width="70" height="46"/>
	<rect x="11" y="15" class="st1" width="74" height="20"/>
</g>
<g id="icon-favourites" class="st2">
	<path class="st2" d="M65.6,13c6,0,11.1,2,15.2,6C84.9,23,87,28,87,34c0,3.5-0.7,6.9-2,10.1c-1.3,3.2-3.8,6.9-7.5,11
		c-3.7,4.1-7,7.5-9.8,10.2c-2.9,2.7-7.6,6.9-14.1,12.8L48,83l-5.6-4.9C35.9,72.2,31.2,68,28.3,65.3c-2.9-2.7-6.2-6.1-9.8-10.2
		c-3.7-4.1-6.2-7.8-7.5-11C9.7,40.9,9,37.5,9,34C9,28,11.1,23,15.2,19c4.1-4,9.2-6,15.2-6c7.1,0,13,2.7,17.6,8
		C52.6,15.7,58.5,13,65.6,13z"/>
</g>
</svg>
