<svg id="favo-icons" xmlns="http://www.w3.org/2000/svg" viewBox="0 0 96 96"><style>.st0{fill:none;stroke:#0096D2;stroke-width:2;}</style><path class="st0" d="M65.4 62.8c2.6 1 4.7 2.6 6.3 4.8 1.6 2.2 2.3 4.7 2.3 7.4H22c0-4.5 1.7-7.9 5.1-10.3 1.2-.9 4.3-1.9 9.2-3 3-.4 4.6-1.2 4.9-2.4.1-.5.2-1.9.2-4.3 0-.4-.1-.7-.4-.9-.5-.5-1-1.4-1.5-2.6-.3-1-.5-2.5-.7-4.5-.5.1-.9-.1-1.2-.6-.3-.5-.6-1.2-.7-2-.2-.8-.3-1.3-.3-1.4-.5-2.7-.3-4.1.6-3.9-.4-.5-.7-1.7-.9-3.6-.4-2.7-.2-5.2.6-7.3.9-2.4 2.4-4.2 4.7-5.4 2.2-1.2 4.7-1.8 7.3-1.7 2.5.1 4.8.9 6.8 2.2 2.1 1.4 3.5 3.3 4.2 5.6.6 1.8.7 4.2.2 7.3-.3 1.5-.5 2.4-.7 2.8.4-.1.7 0 .8.4.2.4.2.8.2 1.4-.1.6-.1 1.1-.2 1.5-.1.4-.2.8-.3 1l-.4 1.3c-.1.9-.3 1.5-.7 1.9-.3.4-.7.5-1.2.4-.3 2.8-.7 4.7-1.3 5.8 0 .1-.2.4-.7.9-.4.5-.7.8-.7.9v2.1c0 1.3.1 2.2.4 2.8.2.6 1.1 1.1 2.6 1.5.9.4 2.2.7 3.8.9 1.5.3 2.8.6 3.7 1z" id="icon-profile"/></svg>