<svg id="favo-icons" xmlns="http://www.w3.org/2000/svg" viewBox="0 0 96 96"><style>.st0{fill:none;stroke:#0096D2;stroke-width:2;} .st1{fill:#FFFFFF;stroke:#0096D2;stroke-width:2;stroke-miterlimit:10;}</style><g id="icon-my-store"><path class="st0" d="M68.8 70c3.9 1.5 7.1 3.8 9.4 7.1 2.3 3.2 3.5 6.9 3.5 11h-78c0-6.7 2.5-11.8 7.6-15.3 1.9-1.3 6.5-2.8 13.7-4.4 4.5-.6 6.9-1.8 7.3-3.6.2-.7.3-2.9.3-6.4 0-.6-.2-1-.6-1.4-.8-.7-1.5-2-2.2-3.9-.4-1.5-.8-3.7-1.1-6.7-.8.2-1.4-.1-1.8-.8-.5-.7-.8-1.7-1.1-2.9-.3-1.2-.4-1.9-.4-2.1-.8-4.1-.5-6 .8-5.8-.6-.7-1-2.5-1.4-5.3-.6-4.1-.3-7.7.8-10.8 1.3-3.5 3.6-6.2 7-8.1 3.4-1.8 7-2.7 10.9-2.5 3.7.2 7.2 1.3 10.2 3.3 3.1 2 5.2 4.8 6.3 8.3.9 2.6 1 6.2.3 10.8-.4 2.2-.8 3.6-1.1 4.2.6-.2 1 0 1.3.6.3.6.4 1.2.3 2.1-.1.8-.2 1.6-.3 2.2-.1.7-.2 1.2-.4 1.5l-.6 1.9c-.2 1.3-.5 2.2-1 2.8-.5.6-1.1.7-1.8.6-.4 4.1-1 6.9-2 8.6 0 .2-.3.7-1 1.4s-1 1.2-1 1.4v3.1c0 1.9.2 3.2.6 4.2.4.9 1.7 1.7 3.9 2.2 1.3.6 3.2 1 5.8 1.4 2.5.2 4.4.7 5.8 1.3z"/><path class="st1" d="M87.3 87.9h-34c-2.8 0-5-2.2-5-5V60.5c0-2.8 2.2-5 5-5h34c2.8 0 5 2.2 5 5v22.4c0 2.8-2.2 5-5 5zM74.1 47.9h-7.6c-2.8 0-5 2.2-5 5v2.6h17.6v-2.6c0-2.7-2.2-5-5-5z"/></g></svg>