<svg id="favo-icons" xmlns="http://www.w3.org/2000/svg" viewBox="0 0 96 96"><style>.st0{fill:#0096D2;} .st1{fill:none;stroke:#0096D2;stroke-width:2;stroke-linecap:round;stroke-linejoin:round;stroke-miterlimit:10;}</style><g id="icon-qr-code"><path class="st0" d="M31.7 64.6v8.9h-8.9v-8.9h8.9m5-5H17.8v18.9h18.9V59.6zM73.4 64.6v8.9h-8.9v-8.9h8.9m5-5H59.5v18.9h18.9V59.6zM31.7 22.7v8.9h-8.9v-8.9h8.9m5-5H17.8v18.9h18.9V17.7zM73.4 22.7v8.9h-8.9v-8.9h8.9m5-5H59.5v18.9h18.9V17.7z"/><path class="st1" d="M11.3 35.9V11.3h24.6M84.7 35.9V11.3H60.1M11.3 60.1v24.6h24.6M60.1 84.7h24.6V60.1"/><path class="st0" d="M41.1 22.3h4.7V27h-4.7zM41.1 73.5h4.7v4.7h-4.7z"/><path class="st0" d="M50.4 31.6h4.7v-9.3h-4.7v4.6h-4.7v4.7h-4.6v9.3h4.6v4.7h4.7zM64.4 45.6v9.3h9.3v-4.7h4.7v-4.6zM59.7 40.9h4.7v4.7h-4.7z"/><path class="st0" d="M50.4 54.9h-9.3v9.3h4.6v9.3h4.7v4.7h4.7v-14h-4.7v-4.7h4.7v-4.6h4.6v-9.3h-9.3z"/><path class="st0" d="M41.1 50.2h4.6v-4.6h-14v-4.7h-4.6v4.7h-4.7v4.6h-4.6v4.7h23.3z"/></g></svg>