<svg id="favo-icons" xmlns="http://www.w3.org/2000/svg" viewBox="0 0 96 96"><style>.st0{fill:none;stroke:#0096D2;stroke-width:2;stroke-linecap:round;stroke-linejoin:round;stroke-miterlimit:10;} .st1{fill:#0096D2;}</style><g id="icon-prices"><circle class="st0" cx="48" cy="48" r="42"/><path class="st1" d="M60.6 55.9c0 2.7-1 5-3.1 6.7s-4.9 2.8-8.5 3.3v7.3h-2.5V66c-1.9 0-4-.3-6.2-.7-2.2-.4-4-.9-5.3-1.6v-3.2c1.5.7 3.4 1.4 5.5 1.9 2.2.5 4.1.8 6 .8V47.5c-3-.9-5.2-1.8-6.6-2.7-1.4-.9-2.5-2-3.2-3.2-.7-1.2-1-2.7-1-4.5 0-2.6 1-4.7 2.9-6.4s4.6-2.8 7.9-3.2v-5.9H49v5.9c4.1.2 7.7.9 10.8 2.2l-1 2.8c-2.9-1.3-6.2-2-9.8-2.2v15c4.4 1.4 7.4 2.8 9.1 4.4 1.6 1.5 2.5 3.6 2.5 6.2zM39.1 37c0 1.8.6 3.2 1.8 4.4s3.1 2.1 5.7 2.9v-14c-2.5.3-4.3 1.1-5.5 2.3-1.4 1.3-2 2.7-2 4.4zm18.1 18.7c0-1.8-.6-3.2-1.9-4.3-1.3-1.1-3.4-2.1-6.2-3V63c2.5-.3 4.5-1 5.9-2.3 1.4-1.3 2.2-3 2.2-5z"/></g></svg>