<svg xmlns="http://www.w3.org/2000/svg" viewBox="0 0 96 96"><style type="text/css">  
	.st0{fill:#0096D2;}
	.st1{fill:#FFFFFF;}
</style><path class="st0" d="M76.9 29L50.1 13.5c-1.1-0.7-3-0.7-4.1 0L19.1 29c-1.2 0.7-2.1 2.2-2.1 3.6v30.9c0 1.4 0.9 2.9 2.1 3.6l26.9 15.5c0.6 0.3 1.3 0.5 2.1 0.5s1.5-0.2 2.1-0.5L76.9 67c1.2-0.7 2.1-2.2 2.1-3.6l0-30.9C79 31.2 78.1 29.6 76.9 29z"/><path class="st1" d="M62 47.7c-0.7-4.1-7.2-4.1-7.2-4.1 -0.2 0-0.5 0-0.7 0h-4.7c-0.2 0-0.3-0.1-0.3-0.3l0-0.8c0-0.2 0.1-0.3 0.3-0.3 0 0 0.2 0 0.3 0 1 0 4.6-0.1 6.3-1.4 2-1.5 2-5.1 2-5.1 0-0.2 0-0.5 0-0.7v-1.4c0-0.2-0.1-0.3-0.3-0.3h-1.4c-0.2 0-0.3 0.1-0.3 0.3v1.4c0 0.2 0 0.3 0 0.4 0 0 0 0.2 0 0.4 0 0-0.1 2.6-1.1 3.3 -1 0.8-4.9 1-4.9 1 -0.2 0-0.4 0-0.5 0 -0.1 0-0.2-0.1-0.2-0.3v-3.4c0-0.2 0.1-0.3 0.3-0.4 0 0 1.5-0.1 2.3-1.2 0.8-1.1 0.8-3.1 0.8-3.1 0-0.2 0-0.5 0-0.7v-0.6c0-0.2-0.1-0.3-0.3-0.3h-1.4c-0.2 0-0.3 0.1-0.3 0.3V31c0 0.2 0 0.5 0 0.7 0 0-0.1 1.5-0.4 1.8 -0.2 0.2-0.7 0.3-0.7 0.3 -0.2 0-0.5 0-0.7 0h-1.4c-0.2 0-0.5 0-0.7 0 0 0-0.5-0.1-0.7-0.3 -0.2-0.3-0.4-1.8-0.4-1.8 0-0.2 0-0.5 0-0.7v-0.6c0-0.2-0.1-0.3-0.3-0.3h-1.4c-0.2 0-0.3 0.1-0.3 0.3V31c0 0.2 0 0.5 0 0.7 0 0 0 2 0.8 3.1 0.8 1.1 2.3 1.2 2.3 1.2 0.2 0 0.3 0.2 0.3 0.4v3.4c0 0.2-0.1 0.3-0.2 0.3 -0.1 0-0.4 0-0.5 0 0 0-3.9-0.2-4.9-1 -1-0.8-1.1-3.3-1.1-3.3 0-0.2 0-0.5 0-0.7v-1.5c0-0.2-0.1-0.3-0.3-0.3h-1.4c-0.2 0-0.3 0.1-0.3 0.3v1.4c0 0.2 0 0.5 0 0.7 0 0-0.1 3.5 2 5.1 1.8 1.3 5.4 1.4 6.3 1.4 0.1 0 0.3 0 0.3 0 0.2 0 0.3 0.1 0.3 0.3v0.8c0 0.2-0.1 0.3-0.3 0.3h-4.7c-0.2 0-0.5 0-0.7 0 0 0-6.5 0-7.2 4.1 -0.6 3.3-1.6 13.4-1.6 13.4 0 0.2 0.1 0.3 0.3 0.4l1.4 0.1c0.2 0 0.3-0.1 0.4-0.3 0 0 1-10.1 1.6-13.3 0.3-1.9 5.2-2.4 5.2-2.4 0.2 0 0.5 0 0.7 0h4.6c0.2 0 0.3 0.1 0.2 0.3 0 0-0.4 1-1.4 1.4 -1.8 0.8-7.1 0.4-7.1 0.4 -0.2 0-0.3 0.1-0.4 0.3l-0.2 1.4c0 0.2 0.1 0.3 0.3 0.4 0 0 1.5 0.2 3.2 0.2 1.7 0 3.7-0.2 5-0.7 0.8-0.4 1.6-1.2 1.6-1.2 0.1-0.1 0.3-0.1 0.5 0 0 0 0.8 0.8 1.6 1.2 1.3 0.6 3.3 0.7 5 0.7 1.7 0 3.2-0.2 3.2-0.2 0.2 0 0.3-0.2 0.3-0.4l-0.2-1.4c0-0.2-0.2-0.3-0.4-0.3 0 0-5.3 0.4-7.1-0.4C49.7 47 49.3 46 49.3 46c-0.1-0.2 0-0.3 0.2-0.3h4.6c0.2 0 0.5 0 0.7 0 0 0 4.8 0.4 5.2 2.4 0.6 3.2 1.6 13.3 1.6 13.3 0 0.2 0.2 0.3 0.4 0.3l1.4-0.1c0.2 0 0.3-0.2 0.3-0.4C63.6 61.1 62.6 51 62 47.7z"/><path class="st1" d="M54.1 52.2c-0.3-0.6-5.4-1-5.4-1 -0.3 0-0.6 0-0.6 0 0 0-0.3 0-0.6 0 0 0-5.1 0.4-5.4 1 -0.6 1-1.2 4.9 0.4 7.5 1.1 1.9 5.2 4.1 5.2 4.1 0.3 0.2 0.7 0.2 1 0 0 0 4.1-2.2 5.2-4.1C55.3 57.1 54.7 53.2 54.1 52.2zM51.8 58.5c-0.5 0.8-3.4 2.7-3.4 2.7 -0.3 0.2-0.7 0.2-0.9 0 0 0-2.9-1.9-3.4-2.7 -1-1.5-0.6-4.3-0.6-4.3 0-0.3 0.3-0.6 0.6-0.7l3.1-0.3c0.3 0 0.8 0 1.1 0l3.3 0.3c0.3 0.1 0.6 0.4 0.6 0.7C52.4 54.2 52.8 57 51.8 58.5z"/><rect x="42.6" y="55.6" class="st1" width="10.6" height="2.2"/></svg>