<svg xmlns="http://www.w3.org/2000/svg" viewBox="0 0 96 96"><style type="text/css">  
	.st0{fill:none;stroke:#0096D2;stroke-width:2;}
</style><path class="st0" d="M65.6 13c6 0 11.1 2 15.2 6C84.9 23 87 28 87 34c0 3.5-0.7 6.9-2 10.1 -1.3 3.2-3.8 6.9-7.5 11 -3.7 4.1-7 7.5-9.8 10.2 -2.9 2.7-7.6 6.9-14.1 12.8L48 83l-5.6-4.9C35.9 72.2 31.2 68 28.3 65.3c-2.9-2.7-6.2-6.1-9.8-10.2 -3.7-4.1-6.2-7.8-7.5-11C9.7 40.9 9 37.5 9 34 9 28 11.1 23 15.2 19c4.1-4 9.2-6 15.2-6 7.1 0 13 2.7 17.6 8C52.6 15.7 58.5 13 65.6 13z"/></svg>