<?xml version="1.0" encoding="utf-8"?>
<!-- Generator: Adobe Illustrator 17.1.0, SVG Export Plug-In . SVG Version: 6.00 Build 0)  -->
<!DOCTYPE svg PUBLIC "-//W3C//DTD SVG 1.1//EN" "http://www.w3.org/Graphics/SVG/1.1/DTD/svg11.dtd" [
	<!ENTITY st0 "fill:none;stroke:#0396D1;stroke-width:2;stroke-miterlimit:10;">
]>
<svg version="1.1" id="Layer_1" xmlns="http://www.w3.org/2000/svg" xmlns:xlink="http://www.w3.org/1999/xlink" x="0px" y="0px"
	 viewBox="0 0 72 72" style="enable-background:new 0 0 72 72;" xml:space="preserve">
<g>
	<path style="&st0;" d="M36.1,66c0,0-0.1,0-0.1,0c-0.5-0.1-3.1-0.7-11.8-3.1c-0.9-0.2-1.7-0.5-2.4-0.7c-0.2,0.7-0.9,1.4-2.3,2
		c-0.2,0.1-0.4,0.1-0.6,0.1h-11c-0.2,0-0.4,0-0.6-0.1C5.8,63.5,5,62.6,5,61.4V34.3c0-0.8,0.5-1.7,1.2-2.3c0.6-0.5,1.2-0.7,1.9-0.6
		h10.8c0.8-0.1,1.7,0.2,2.3,0.9c0.2,0.2,0.3,0.4,0.4,0.6c2-1.6,5.2-4.1,7.6-6c1.7-1.3,2.9-2.3,3-2.4c0,0,0.1-0.1,0.1-0.1
		c0,0,0.6-0.5,1-1.4c0.6-1.3,6.9-14.9,7.2-15.4c0.3-0.6,0.8-1,1.4-1.3c0.2-0.1,1-0.4,2-0.4c2.1,0,5.6,1.2,5.6,5.9l0,4.4
		c0,3.2,0,6.8,0,9.6h10.6c4.3,0,6.9,2.5,6.9,6.6c0,2-0.8,3.9-2.2,5.2c0.7,1.1,1,2.3,1,3.6c0,2.2-1,4.2-2.7,5.5
		c0.5,1,0.8,2.1,0.8,3.3c0,2.2-1,4.2-2.7,5.5c0.5,1,0.8,2.1,0.8,3.3c0,3.8-3.1,7-6.9,7.1L36.1,66L36.1,66z"/>
	<line style="&st0;" x1="21.4" y1="31.2" x2="21.4" y2="63.2"/>
</g>
</svg>
