<svg xmlns="http://www.w3.org/2000/svg" viewBox="0 0 96 96"><style type="text/css">  
	.st0{fill:#0096D2;}
</style><path class="st0" d="M65.8 61.9c-1-0.4-2.3-0.7-4.1-1 -1.6-0.2-2.8-0.5-3.6-0.9L58 60c-1.7-0.4-1.9-0.9-1.9-0.9 -0.1-0.3-0.3-1-0.3-2.4v-1.8c0.1-0.1 0.2-0.2 0.4-0.5 0.5-0.6 0.8-0.9 0.9-1.2 0.6-1.1 1-2.8 1.3-5.2 0.4-0.1 0.8-0.4 1.1-0.7 0.4-0.5 0.7-1.3 0.9-2.3l0.3-1.2c0.1-0.3 0.3-0.7 0.3-1.2 0.1-0.4 0.1-1 0.2-1.5 0.1-0.8 0-1.4-0.3-2 -0.1-0.2-0.3-0.4-0.4-0.6 0.1-0.5 0.3-1.1 0.4-2 0.5-3.3 0.5-5.9-0.2-7.8 -0.8-2.6-2.4-4.7-4.6-6.2 -2.2-1.5-4.7-2.3-7.4-2.4 -2.8-0.1-5.4 0.5-7.8 1.8 -2.5 1.4-4.2 3.4-5.1 6 -0.8 2.3-1 4.9-0.6 7.8 0.2 1.5 0.4 2.4 0.6 3 -0.6 0.7-0.7 2.1-0.2 4.5 0 0.2 0.1 0.5 0.3 1.5 0.2 0.9 0.5 1.7 0.9 2.3 0.4 0.6 0.8 0.9 1.2 1 0.2 1.7 0.4 2.9 0.7 3.8l0 0.1c0.6 1.4 1.1 2.4 1.7 3 0.1 0.1 0.1 0.1 0.1 0.2 0 3.1-0.1 3.9-0.2 4.1 -0.1 0.7-1.7 1.3-4 1.6l-0.1 0c-5 1.2-8.2 2.2-9.5 3.2 -3.6 2.6-5.5 6.3-5.5 11.1v1h54.1v-1c0-2.9-0.9-5.6-2.5-8C70.9 64.7 68.6 63 65.8 61.9z"/><path class="st0" d="M23.2 64.5c1-1.1 2.5-2.2 4.4-3.3 0.3-0.2 1.1-0.5 3.7-0.8 0.8 0 1.2-0.4 1.3-0.7 0.3-0.5 0.2-1.1-0.2-1.7l-0.2-0.2c-0.4-0.3-0.9-0.6-1.5-0.9 -0.5-0.2-1.2-0.4-2-0.5 -0.8-0.2-1.1-0.3-1.1-0.3L27.3 56c0 0 0-0.1 0-0.3v-1.2c0.2 0 0.4 0 0.7 0l0.2 0c1.6-0.3 2.7-0.5 3.5-0.8l1.3-0.6 0.1-0.1c0.6-0.6 0.3-1.6-0.3-2.8 -0.6-1.5-0.9-2.9-0.9-4.1v-4c0-2.3-0.1-4-0.4-5.1 -0.8-5.1-4.2-7.8-9.8-7.8 -3.7 0-6.4 1.3-8 3.8 -1.1 1.7-1.7 4.8-1.7 9.6 0 2.3-0.1 4-0.2 5.1l-0.5 2.1 -1 2.9 0.6 0.4c1.5 1.1 3.3 1.6 5.6 1.6v1.6c-0.1 0.1-0.3 0.2-0.6 0.3 -0.7 0.2-1.6 0.5-2.6 0.7 -1.2 0.3-1.5 0.3-1.4 0.3l-0.3 0C7.2 58.9 5 61.8 5 66v1h16C21.8 67 22.4 66.2 23.2 64.5z"/><path class="st0" d="M84.5 57.6c-0.4-0.1-1.1-0.3-1.9-0.4 -0.7-0.1-1.4-0.3-1.9-0.5 -0.4-0.2-0.7-0.3-1-0.6 0-0.2-0.1-0.7-0.1-1.7 0.7 0 1.3-0.1 1.7-0.2l2.5-0.6 0.1-0.1c0.5 0 0.8-0.2 1-0.3 0.3-0.2 0.5-0.4 0.7-0.7 0.2-0.7-0.1-1.3-0.4-1.8 -0.4-0.6-0.8-1.5-1-2.5 -0.2-1-0.4-1.9-0.4-2.6 0-0.8 0-1.8 0.1-3.1 0.1-1.4 0.1-2.3 0.1-2.9 0-4.4-1.4-7.4-4.3-9.1 -3.1-1.8-6.5-2-9.9-0.6 -3.5 1.4-5.4 5.1-5.7 11 -0.3 7-0.7 8.8-0.9 9.2 -0.9 2.1-0.3 3 0.5 3.4 0.6 0.3 1.3 0.5 2.1 0.8l0.1 0c1 0.2 1.8 0.3 2.5 0.3v1.3c-0.3 0.1-0.9 0.4-2.3 0.8 -1.7 0.5-2.6 0.9-3 1.5l-0.1 0.2c-0.3 0.9 0.1 1.7 0.9 2 0.4 0.2 1 0.3 1.6 0.3h0.8c1.2 0.2 2.8 1.1 4.7 2.6 2.1 1.8 2.6 2.7 2.7 3.1l0.2 0.7H91v-1C91 61.8 88.8 58.9 84.5 57.6z"/></svg>