<svg xmlns="http://www.w3.org/2000/svg" viewBox="0 0 96 96"><style type="text/css">  
	.st0{fill:#0096D2;}
</style><path class="st0" d="M81.7 15.1c-1.5-1.8-3.7-2.7-6.1-2.7H21.5c-5 0-9 4-9 9V78c0 4.1 2.1 5.6 4 5.6 1.4 0 2.9-0.8 4.3-2.3l12.5-13.4c2.2-2.4 7-4.4 10.2-4.4h16.5c3.8 0 8.7-1.8 12-4.5 0.7-0.5 1.8-1.8 2.5-3.1 1.6-2.8 3.4-8.6 5.2-16.6 3.2-14.7 3.7-17.6 3.7-17.7C83.8 19.2 83.2 16.9 81.7 15.1zM79.4 21c0 0.1-0.4 2-2.4 11.2 -0.4 1.4-1.3 2-2.8 2.9 -1.4 0.8-5.4 0.8-5.9 0.8H50.1c-0.5 0-1.2 0.3-1.4 0.8l-0.2 0.3c-0.3 0.4-0.3 1.1 0 1.5l0.2 0.3c0.3 0.4 0.9 0.8 1.4 0.8h19.9c0.5 0 2.7-0.1 3.2-0.2 0 0 1.3-0.3 2.5-1.1 0 0.1 0 0.2-0.1 0.3 -2.2 10.2-3.9 14-4.8 15.4 -0.5 0.9-1.3 1.8-1.5 2 -2.5 2-6.6 3.6-9.5 3.6H43.5c-4.4 0-10.2 2.5-13.2 5.7L17.9 78.3c0 0-1.4 1.6-1.4-0.3V21.4c0-2.7 2.2-4.9 4.9-4.9h54.1c1.2 0 2.3 0.5 3 1.3C79.3 18.6 79.6 19.7 79.4 21z"/></svg>