<svg xmlns="http://www.w3.org/2000/svg" viewBox="0 0 96 96"><style type="text/css">  
	.st0{fill:none;stroke:#0096D2;stroke-width:2;}
</style><path class="st0" d="M81.4 67.2c3.4 1.3 6.2 3.4 8.2 6.2 2 2.8 3.1 6 3.1 9.6h-6.9H24.4c0-5.8 2.2-10.3 6.6-13.4 1.6-1.1 5.7-2.4 12-3.9 3.9-0.5 6.1-1.5 6.4-3.2 0.2-0.6 0.2-2.5 0.2-5.6 0-0.5-0.2-0.9-0.5-1.2 -0.7-0.6-1.3-1.8-2-3.4 -0.3-1.3-0.7-3.2-1-5.8 -0.7 0.2-1.2-0.1-1.6-0.7 -0.4-0.6-0.7-1.5-1-2.6 -0.2-1.1-0.4-1.7-0.4-1.8 -0.7-3.6-0.4-5.3 0.7-5.1 -0.5-0.6-0.9-2.2-1.2-4.6 -0.5-3.6-0.2-6.7 0.7-9.5 1.1-3.1 3.2-5.4 6.1-7.1 2.9-1.6 6.1-2.3 9.6-2.2 3.3 0.2 6.3 1.1 9 2.9 2.7 1.8 4.5 4.2 5.5 7.3 0.8 2.3 0.9 5.4 0.2 9.5 -0.3 1.9-0.7 3.2-1 3.6 0.5-0.2 0.9 0 1.1 0.5 0.2 0.5 0.3 1.1 0.2 1.8 -0.1 0.7-0.2 1.4-0.2 1.9 -0.1 0.6-0.2 1-0.4 1.3l-0.5 1.7c-0.2 1.1-0.5 1.9-0.9 2.4 -0.4 0.5-0.9 0.7-1.6 0.5 -0.3 3.6-0.9 6.1-1.7 7.5 0 0.2-0.3 0.6-0.9 1.2 -0.6 0.7-0.9 1.1-0.9 1.2v2.7c0 1.6 0.2 2.8 0.5 3.6 0.3 0.8 1.5 1.5 3.4 1.9 1.1 0.5 2.8 0.9 5 1.2C78.5 66.3 80.2 66.7 81.4 67.2z"/><line class="st0" x1="16" y1="35" x2="16" y2="61"/><line class="st0" x1="30" y1="48" x2="3" y2="48"/></svg>