<svg xmlns="http://www.w3.org/2000/svg" viewBox="0 0 96 96"><style type="text/css">  
	.st0{fill:none;stroke:#0096D2;stroke-width:2;}
</style><path class="st0" d="M27 60.4c-2 1.1-3.6 2.3-4.7 3.6C21.7 65.3 21.2 66 21 66h-4.7H6c0-3.7 1.9-6.2 5.8-7.5 0.1 0 0.7-0.1 1.7-0.4 1-0.2 1.9-0.5 2.6-0.7 0.8-0.2 1.2-0.6 1.3-0.9v-3c-2.5 0.3-4.5-0.2-6-1.3l0.8-2.2 0.6-2.2c0.1-1.1 0.2-2.9 0.2-5.2 0-4.5 0.5-7.5 1.5-9 1.4-2.2 3.7-3.4 7.1-3.4 5.1 0 8.1 2.3 8.8 6.9 0.2 1.1 0.4 2.8 0.4 5 0 2.2 0 3.5 0 4 0 1.4 0.3 2.9 0.9 4.5 0.5 1 0.7 1.6 0.6 1.7l-1.1 0.6c-0.6 0.3-1.7 0.5-3.2 0.7 -1 0-1.6 0.1-1.7 0.2v2.1c0 0.7 0.3 1.2 0.9 1.3 0.2 0.1 0.7 0.3 1.4 0.4 0.7 0.1 1.3 0.3 1.8 0.5 0.5 0.2 0.9 0.4 1.1 0.7 0.4 0.6 0.2 0.9-0.4 0.9C29 59.7 27.6 60 27 60.4zM65.4 62.8c2.6 1 4.7 2.6 6.3 4.8 1.6 2.2 2.3 4.7 2.3 7.4h-5.3H21.9c0-4.5 1.7-7.9 5.1-10.3 1.2-0.9 4.3-1.9 9.2-3 3-0.4 4.6-1.2 4.9-2.4 0.1-0.5 0.2-1.9 0.2-4.3 0-0.4-0.1-0.7-0.4-0.9 -0.5-0.5-1-1.4-1.5-2.6 -0.3-1-0.5-2.5-0.8-4.5 -0.5 0.1-0.9-0.1-1.2-0.6 -0.3-0.5-0.6-1.2-0.8-2 -0.2-0.8-0.3-1.3-0.3-1.4 -0.5-2.7-0.3-4.1 0.6-3.9 -0.4-0.5-0.7-1.7-0.9-3.6 -0.4-2.7-0.2-5.2 0.6-7.3 0.9-2.4 2.4-4.2 4.7-5.4 2.3-1.2 4.7-1.8 7.3-1.7 2.5 0.1 4.8 0.9 6.8 2.2 2.1 1.4 3.5 3.3 4.2 5.6 0.6 1.8 0.7 4.2 0.2 7.3 -0.3 1.5-0.5 2.4-0.8 2.8 0.4-0.1 0.7 0 0.8 0.4 0.2 0.4 0.2 0.8 0.2 1.4 -0.1 0.6-0.1 1.1-0.2 1.5 -0.1 0.4-0.2 0.8-0.3 1l-0.4 1.3c-0.1 0.9-0.3 1.5-0.7 1.9 -0.3 0.4-0.7 0.5-1.2 0.4 -0.3 2.8-0.7 4.7-1.3 5.8 0 0.1-0.2 0.4-0.7 0.9 -0.4 0.5-0.7 0.8-0.7 0.9v2.1c0 1.3 0.1 2.2 0.4 2.8 0.2 0.6 1.1 1.1 2.6 1.5 0.9 0.4 2.2 0.7 3.8 0.9C63.3 62.1 64.6 62.4 65.4 62.8zM75 66c-0.3-0.9-1.3-2.1-3-3.6 -2.1-1.6-3.9-2.6-5.3-2.8 -0.1 0-0.4 0-0.9 0 -0.5 0-0.9-0.1-1.2-0.2 -0.3-0.1-0.4-0.4-0.3-0.7 0.2-0.4 1.1-0.7 2.4-1.1 1.9-0.5 2.9-0.9 3-1.3v-2.6c-0.8 0-1.9-0.1-3.4-0.4 -0.8-0.2-1.4-0.5-2.1-0.7 -0.5-0.2-0.5-0.9 0-2.1 0.4-0.9 0.7-4.1 0.9-9.6 0.2-5.5 1.9-8.9 5.1-10.1 3.1-1.2 6.1-1.1 9 0.6 2.5 1.5 3.8 4.2 3.8 8.2 0 0.5 0 1.4-0.1 2.8 -0.1 1.4-0.1 2.4-0.1 3.2s0.1 1.7 0.4 2.8c0.2 1.1 0.6 2.1 1.1 2.8 0.4 0.6 0.4 1 0 1.1 -0.1 0.1-0.3 0.2-0.6 0.2 -0.3 0-0.4 0.1-0.6 0.2L81 53.3c-0.5 0.1-1.3 0.2-2.4 0.2 0 2 0.1 3.1 0.2 3.2 0.4 0.4 0.9 0.7 1.5 0.9 0.6 0.3 1.3 0.4 2.2 0.6 0.8 0.1 1.4 0.3 1.8 0.4 3.9 1.3 5.8 3.7 5.8 7.5H75z"/></svg>