<?xml version="1.0" encoding="utf-8"?>
<!-- Generator: Adobe Illustrator 17.1.0, SVG Export Plug-In . SVG Version: 6.00 Build 0)  -->
<!DOCTYPE svg PUBLIC "-//W3C//DTD SVG 1.1//EN" "http://www.w3.org/Graphics/SVG/1.1/DTD/svg11.dtd" [
	<!ENTITY st0 "fill:none;stroke:#990000;stroke-width:2;stroke-linecap:round;stroke-linejoin:round;stroke-miterlimit:10;">
]>
<svg version="1.1" id="Layer_1" xmlns="http://www.w3.org/2000/svg" xmlns:xlink="http://www.w3.org/1999/xlink" x="0px" y="0px"
	 viewBox="0 0 64 64" style="enable-background:new 0 0 64 64;" xml:space="preserve">
<g>
	<path style="&st0;" d="M19.1,45.3c7.9,7.9,18.6,13.1,30.4,14.1c2.4,0.2,5-0.5,6.4-2.4c1.2-1.7,2.6-4.9,3.4-7.8
		c0.3-1.1-0.3-2.2-1.4-2.5c-4.8-1.7-9.3-4-13.5-6.7c-0.9-0.6-2-0.4-2.7,0.3l-3.9,3.9c-0.9,0.9-2.4,1.1-3.5,0.4
		c-2.9-1.9-5.6-4.1-8-6.5c-2.4-2.4-4.6-5.1-6.5-8c-0.7-1.1-0.6-2.5,0.4-3.5l3.9-3.9c0.7-0.7,0.8-1.8,0.3-2.7
		c-2.7-4.2-5-8.7-6.7-13.5c-0.4-1-1.5-1.6-2.5-1.4c-2.9,0.8-6.1,2.1-7.8,3.4c-1.9,1.4-2.6,4-2.4,6.4C6,26.7,11.2,37.4,19.1,45.3z"/>
	<g>
		<line style="&st0;" x1="52.5" y1="9.9" x2="36.8" y2="25.6"/>
		<polyline style="&st0;" points="49.2,25.6 36.8,25.6 36.8,13.1 		"/>
	</g>
</g>
</svg>
