<svg id="favo-icons" xmlns="http://www.w3.org/2000/svg" viewBox="0 0 96 96"><style>.st0{fill:#FFFFFF;}</style><g id="icon-view_1_"><path class="st0" d="M88.3 46.4c-.7-.8-18.3-20-40.3-20S8.4 45.6 7.7 46.4c-.8.9-.8 2.3 0 3.2.7.8 18.3 20 40.3 20s39.6-19.2 40.3-20c.8-.9.8-2.3 0-3.2zM64.8 48c0 9.3-7.5 16.8-16.8 16.8S31.2 57.3 31.2 48 38.7 31.2 48 31.2 64.8 38.7 64.8 48z"/><path class="st0" d="M50.5 43.2c0-2.4 1.2-4.5 3-5.8-1.6-.8-3.5-1.4-5.4-1.4-6.6 0-12 5.4-12 12s5.4 12 12 12c5.9 0 10.8-4.3 11.8-10-4.8 1.6-9.4-2.1-9.4-6.8z"/></g></svg>